<?xml version="1.0" encoding="UTF-8"?>
<svg xmlns="http://www.w3.org/2000/svg" xmlns:xlink="http://www.w3.org/1999/xlink" width="375pt" height="374.999991pt" viewBox="0 0 375 374.999991" version="1.2">
<defs>
<clipPath id="clip1">
  <path d="M 3 18.703125 L 147 18.703125 L 147 374.953125 L 3 374.953125 Z M 3 18.703125 "/>
</clipPath>
<clipPath id="clip2">
  <path d="M 228 18.703125 L 372 18.703125 L 372 374.953125 L 228 374.953125 Z M 228 18.703125 "/>
</clipPath>
<clipPath id="clip3">
  <path d="M 88 101 L 166 101 L 166 292.933594 L 88 292.933594 Z M 88 101 "/>
</clipPath>
<clipPath id="clip4">
  <path d="M 209 101 L 287 101 L 287 292.933594 L 209 292.933594 Z M 209 101 "/>
</clipPath>
<clipPath id="clip5">
  <path d="M 210 171 L 245.796875 171 L 245.796875 223 L 210 223 Z M 210 171 "/>
</clipPath>
<clipPath id="clip6">
  <path d="M 129.546875 171 L 165 171 L 165 223 L 129.546875 223 Z M 129.546875 171 "/>
</clipPath>
<clipPath id="clip7">
  <path d="M 166 138.898438 L 210 138.898438 L 210 255.148438 L 166 255.148438 Z M 166 138.898438 "/>
</clipPath>
</defs>
<g id="surface1">
<g clip-path="url(#clip1)" clip-rule="nonzero">
<path style=" stroke:none;fill-rule:nonzero;fill:rgb(100%,100%,100%);fill-opacity:1;" d="M 62.695312 84.375 L 62.695312 149.910156 C 62.691406 150.84375 62.640625 151.773438 62.546875 152.699219 C 62.449219 153.625 62.308594 154.546875 62.125 155.460938 C 61.941406 156.371094 61.710938 157.273438 61.4375 158.164062 C 61.164062 159.054688 60.847656 159.929688 60.488281 160.789062 C 60.128906 161.648438 59.726562 162.492188 59.285156 163.3125 C 58.84375 164.132812 58.363281 164.929688 57.84375 165.703125 C 57.324219 166.476562 56.769531 167.222656 56.175781 167.941406 C 55.585938 168.660156 54.960938 169.347656 54.300781 170.007812 C 53.640625 170.664062 52.949219 171.289062 52.230469 171.878906 C 51.507812 172.46875 50.761719 173.023438 49.984375 173.539062 C 49.210938 174.058594 48.410156 174.535156 47.589844 174.972656 C 46.769531 175.414062 45.925781 175.8125 45.066406 176.167969 C 44.207031 176.523438 43.328125 176.839844 42.4375 177.109375 C 41.546875 177.378906 40.644531 177.605469 39.730469 177.789062 C 38.816406 177.972656 37.894531 178.109375 36.96875 178.203125 C 36.042969 178.296875 35.113281 178.34375 34.179688 178.34375 L 3.464844 178.34375 L 3.464844 215.3125 L 34.179688 215.3125 C 35.117188 215.3125 36.050781 215.359375 36.980469 215.449219 C 37.910156 215.542969 38.835938 215.679688 39.753906 215.863281 C 40.671875 216.042969 41.578125 216.273438 42.472656 216.542969 C 43.367188 216.816406 44.246094 217.128906 45.113281 217.488281 C 45.976562 217.847656 46.820312 218.246094 47.644531 218.6875 C 48.472656 219.128906 49.273438 219.609375 50.050781 220.128906 C 50.828125 220.648438 51.578125 221.203125 52.300781 221.796875 C 53.027344 222.390625 53.71875 223.019531 54.378906 223.679688 C 55.039062 224.34375 55.667969 225.035156 56.261719 225.757812 C 56.855469 226.480469 57.410156 227.230469 57.933594 228.007812 C 58.453125 228.789062 58.933594 229.589844 59.371094 230.414062 C 59.8125 231.238281 60.214844 232.082031 60.570312 232.949219 C 60.929688 233.8125 61.246094 234.691406 61.515625 235.589844 C 61.789062 236.484375 62.015625 237.390625 62.195312 238.308594 C 62.378906 239.226562 62.515625 240.148438 62.609375 241.082031 C 62.699219 242.011719 62.746094 242.945312 62.746094 243.878906 L 62.746094 309.417969 C 62.75 310.488281 62.777344 311.554688 62.832031 312.625 C 62.886719 313.691406 62.96875 314.757812 63.074219 315.824219 C 63.179688 316.886719 63.3125 317.949219 63.472656 319.003906 C 63.632812 320.0625 63.816406 321.117188 64.027344 322.164062 C 64.238281 323.214844 64.472656 324.257812 64.734375 325.292969 C 64.996094 326.332031 65.285156 327.359375 65.597656 328.382812 C 65.90625 329.40625 66.246094 330.421875 66.605469 331.429688 C 66.96875 332.433594 67.355469 333.433594 67.765625 334.417969 C 68.175781 335.40625 68.609375 336.382812 69.066406 337.351562 C 69.527344 338.316406 70.007812 339.273438 70.511719 340.214844 C 71.019531 341.15625 71.546875 342.085938 72.097656 343.003906 C 72.648438 343.921875 73.21875 344.824219 73.8125 345.710938 C 74.410156 346.601562 75.023438 347.476562 75.664062 348.335938 C 76.300781 349.191406 76.957031 350.035156 77.636719 350.863281 C 78.316406 351.6875 79.015625 352.5 79.734375 353.289062 C 80.453125 354.082031 81.1875 354.855469 81.945312 355.613281 C 82.703125 356.371094 83.476562 357.105469 84.269531 357.824219 C 85.0625 358.542969 85.871094 359.242188 86.695312 359.921875 C 87.523438 360.597656 88.367188 361.257812 89.226562 361.894531 C 90.082031 362.53125 90.957031 363.148438 91.847656 363.742188 C 92.734375 364.335938 93.640625 364.910156 94.554688 365.460938 C 95.472656 366.011719 96.402344 366.539062 97.34375 367.042969 C 98.289062 367.546875 99.242188 368.027344 100.210938 368.488281 C 101.175781 368.945312 102.152344 369.378906 103.140625 369.789062 C 104.128906 370.199219 105.125 370.585938 106.132812 370.949219 C 107.136719 371.308594 108.152344 371.644531 109.175781 371.957031 C 110.199219 372.269531 111.230469 372.554688 112.265625 372.816406 C 113.304688 373.078125 114.347656 373.3125 115.394531 373.523438 C 116.445312 373.734375 117.496094 373.917969 118.554688 374.078125 C 119.613281 374.234375 120.671875 374.367188 121.738281 374.476562 C 122.800781 374.582031 123.867188 374.664062 124.9375 374.71875 C 126.003906 374.773438 127.074219 374.800781 128.140625 374.800781 L 146.625 374.800781 L 146.625 337.816406 L 128.140625 337.816406 C 127.207031 337.816406 126.273438 337.769531 125.34375 337.679688 C 124.410156 337.585938 123.488281 337.449219 122.570312 337.265625 C 121.652344 337.085938 120.746094 336.859375 119.851562 336.585938 C 118.953125 336.316406 118.074219 336 117.210938 335.640625 C 116.347656 335.285156 115.5 334.882812 114.675781 334.441406 C 113.851562 334.003906 113.050781 333.523438 112.273438 333 C 111.496094 332.480469 110.742188 331.925781 110.019531 331.332031 C 109.296875 330.738281 108.605469 330.109375 107.945312 329.449219 C 107.28125 328.789062 106.65625 328.09375 106.0625 327.371094 C 105.46875 326.648438 104.910156 325.898438 104.390625 325.121094 C 103.871094 324.34375 103.390625 323.539062 102.949219 322.714844 C 102.507812 321.890625 102.109375 321.046875 101.75 320.179688 C 101.394531 319.316406 101.078125 318.4375 100.808594 317.542969 C 100.535156 316.644531 100.308594 315.738281 100.125 314.820312 C 99.945312 313.90625 99.804688 312.980469 99.714844 312.050781 C 99.625 311.117188 99.578125 310.183594 99.578125 309.25 L 99.578125 243.710938 C 99.550781 237.628906 98.664062 231.671875 96.917969 225.84375 C 95.175781 220.011719 92.644531 214.550781 89.328125 209.449219 C 85.046875 213.300781 80.429688 216.703125 75.480469 219.648438 C 74.179688 220.410156 72.773438 220.789062 71.265625 220.792969 C 70.339844 220.792969 69.4375 220.644531 68.5625 220.351562 C 67.683594 220.054688 66.878906 219.625 66.144531 219.0625 C 65.410156 218.5 64.785156 217.835938 64.269531 217.066406 C 63.753906 216.296875 63.375 215.464844 63.136719 214.570312 C 62.894531 213.679688 62.804688 212.769531 62.863281 211.847656 C 62.925781 210.921875 63.132812 210.035156 63.484375 209.179688 C 63.839844 208.324219 64.320312 207.546875 64.929688 206.851562 C 65.539062 206.15625 66.246094 205.574219 67.046875 205.113281 C 71.984375 202.296875 76.480469 198.894531 80.53125 194.90625 C 84.585938 190.917969 88.058594 186.480469 90.957031 181.585938 C 93.78125 176.753906 95.921875 171.636719 97.382812 166.238281 C 98.847656 160.839844 99.578125 155.347656 99.578125 149.761719 L 99.578125 84.222656 C 99.578125 83.289062 99.625 82.355469 99.714844 81.421875 C 99.804688 80.492188 99.945312 79.566406 100.125 78.648438 C 100.308594 77.734375 100.535156 76.828125 100.808594 75.929688 C 101.078125 75.035156 101.394531 74.15625 101.75 73.292969 C 102.109375 72.425781 102.507812 71.582031 102.949219 70.757812 C 103.390625 69.933594 103.871094 69.128906 104.390625 68.351562 C 104.910156 67.574219 105.46875 66.824219 106.0625 66.101562 C 106.65625 65.378906 107.28125 64.683594 107.945312 64.023438 C 108.605469 63.363281 109.296875 62.734375 110.019531 62.140625 C 110.742188 61.546875 111.496094 60.992188 112.273438 60.472656 C 113.050781 59.949219 113.851562 59.46875 114.675781 59.03125 C 115.5 58.589844 116.347656 58.1875 117.210938 57.832031 C 118.074219 57.472656 118.953125 57.15625 119.851562 56.886719 C 120.746094 56.613281 121.652344 56.386719 122.570312 56.207031 C 123.488281 56.023438 124.410156 55.886719 125.34375 55.792969 C 126.273438 55.703125 127.207031 55.65625 128.140625 55.65625 L 146.625 55.65625 L 146.625 18.988281 L 128.140625 18.988281 C 127.070312 18.992188 126.003906 19.019531 124.933594 19.070312 C 123.867188 19.125 122.796875 19.207031 121.734375 19.3125 C 120.667969 19.417969 119.609375 19.550781 118.550781 19.707031 C 117.492188 19.867188 116.4375 20.050781 115.386719 20.257812 C 114.339844 20.46875 113.296875 20.703125 112.257812 20.964844 C 111.21875 21.226562 110.1875 21.511719 109.164062 21.824219 C 108.140625 22.132812 107.125 22.46875 106.117188 22.832031 C 105.113281 23.191406 104.113281 23.578125 103.125 23.988281 C 102.136719 24.398438 101.160156 24.832031 100.191406 25.289062 C 99.226562 25.746094 98.269531 26.226562 97.324219 26.734375 C 96.382812 27.238281 95.453125 27.765625 94.535156 28.316406 C 93.617188 28.863281 92.710938 29.4375 91.824219 30.03125 C 90.933594 30.625 90.058594 31.242188 89.199219 31.878906 C 88.339844 32.515625 87.496094 33.175781 86.667969 33.851562 C 85.839844 34.53125 85.03125 35.230469 84.238281 35.949219 C 83.445312 36.667969 82.667969 37.40625 81.914062 38.160156 C 81.15625 38.917969 80.417969 39.691406 79.699219 40.484375 C 78.980469 41.277344 78.28125 42.085938 77.601562 42.914062 C 76.921875 43.738281 76.261719 44.582031 75.625 45.441406 C 74.984375 46.300781 74.371094 47.175781 73.773438 48.0625 C 73.179688 48.953125 72.605469 49.855469 72.054688 50.773438 C 71.503906 51.691406 70.976562 52.621094 70.46875 53.5625 C 69.964844 54.507812 69.480469 55.460938 69.023438 56.429688 C 68.566406 57.394531 68.128906 58.371094 67.71875 59.359375 C 67.308594 60.347656 66.921875 61.347656 66.558594 62.351562 C 66.199219 63.359375 65.859375 64.375 65.546875 65.398438 C 65.234375 66.421875 64.949219 67.453125 64.6875 68.492188 C 64.425781 69.527344 64.1875 70.570312 63.976562 71.621094 C 63.765625 72.671875 63.582031 73.722656 63.421875 74.78125 C 63.265625 75.839844 63.132812 76.902344 63.023438 77.964844 C 62.917969 79.03125 62.835938 80.097656 62.78125 81.167969 C 62.726562 82.234375 62.699219 83.304688 62.695312 84.375 Z M 62.695312 84.375 "/>
</g>
<g clip-path="url(#clip2)" clip-rule="nonzero">
<path style=" stroke:none;fill-rule:nonzero;fill:rgb(100%,100%,100%);fill-opacity:1;" d="M 341 178.34375 C 340.0625 178.34375 339.128906 178.296875 338.199219 178.207031 C 337.269531 178.113281 336.34375 177.976562 335.425781 177.796875 C 334.507812 177.613281 333.601562 177.386719 332.707031 177.113281 C 331.8125 176.84375 330.933594 176.527344 330.066406 176.167969 C 329.203125 175.8125 328.359375 175.410156 327.535156 174.972656 C 326.707031 174.53125 325.90625 174.050781 325.128906 173.53125 C 324.351562 173.011719 323.601562 172.453125 322.878906 171.859375 C 322.15625 171.265625 321.460938 170.636719 320.800781 169.976562 C 320.140625 169.316406 319.511719 168.621094 318.917969 167.898438 C 318.324219 167.175781 317.769531 166.425781 317.25 165.648438 C 316.730469 164.871094 316.25 164.070312 315.808594 163.242188 C 315.367188 162.417969 314.964844 161.574219 314.609375 160.710938 C 314.25 159.84375 313.9375 158.964844 313.664062 158.070312 C 313.394531 157.175781 313.164062 156.269531 312.984375 155.351562 C 312.800781 154.433594 312.664062 153.507812 312.570312 152.578125 C 312.480469 151.644531 312.433594 150.710938 312.433594 149.777344 L 312.433594 84.242188 C 312.433594 83.171875 312.402344 82.101562 312.347656 81.035156 C 312.292969 79.964844 312.214844 78.898438 312.105469 77.835938 C 312 76.773438 311.867188 75.710938 311.707031 74.652344 C 311.546875 73.597656 311.363281 72.542969 311.152344 71.496094 C 310.941406 70.445312 310.707031 69.402344 310.445312 68.367188 C 310.183594 67.328125 309.898438 66.300781 309.585938 65.277344 C 309.273438 64.253906 308.9375 63.238281 308.574219 62.234375 C 308.214844 61.226562 307.828125 60.230469 307.417969 59.242188 C 307.007812 58.253906 306.574219 57.277344 306.113281 56.3125 C 305.65625 55.34375 305.175781 54.390625 304.671875 53.449219 C 304.164062 52.503906 303.636719 51.574219 303.085938 50.660156 C 302.535156 49.742188 301.964844 48.839844 301.371094 47.949219 C 300.773438 47.0625 300.160156 46.1875 299.523438 45.328125 C 298.882812 44.46875 298.226562 43.628906 297.546875 42.800781 C 296.871094 41.972656 296.171875 41.164062 295.453125 40.371094 C 294.734375 39.582031 293.996094 38.804688 293.242188 38.050781 C 292.484375 37.292969 291.710938 36.554688 290.917969 35.839844 C 290.125 35.121094 289.316406 34.421875 288.492188 33.742188 C 287.664062 33.0625 286.820312 32.40625 285.964844 31.769531 C 285.105469 31.132812 284.230469 30.515625 283.34375 29.921875 C 282.453125 29.324219 281.550781 28.753906 280.632812 28.203125 C 279.71875 27.652344 278.789062 27.125 277.84375 26.621094 C 276.902344 26.113281 275.949219 25.632812 274.980469 25.175781 C 274.015625 24.71875 273.039062 24.28125 272.050781 23.871094 C 271.0625 23.460938 270.066406 23.074219 269.0625 22.714844 C 268.054688 22.351562 267.039062 22.015625 266.015625 21.703125 C 264.992188 21.390625 263.964844 21.105469 262.925781 20.84375 C 261.890625 20.582031 260.847656 20.347656 259.800781 20.136719 C 258.75 19.925781 257.699219 19.742188 256.640625 19.582031 C 255.582031 19.421875 254.523438 19.289062 253.457031 19.183594 C 252.394531 19.078125 251.328125 18.996094 250.261719 18.941406 C 249.191406 18.886719 248.125 18.855469 247.054688 18.855469 L 228.570312 18.855469 L 228.570312 55.839844 L 247.054688 55.839844 C 247.992188 55.839844 248.921875 55.886719 249.855469 55.980469 C 250.785156 56.070312 251.710938 56.207031 252.628906 56.390625 C 253.546875 56.574219 254.453125 56.800781 255.347656 57.070312 C 256.242188 57.34375 257.121094 57.65625 257.984375 58.015625 C 258.851562 58.375 259.695312 58.773438 260.519531 59.214844 C 261.34375 59.65625 262.148438 60.136719 262.925781 60.65625 C 263.703125 61.175781 264.453125 61.730469 265.175781 62.324219 C 265.898438 62.917969 266.589844 63.546875 267.253906 64.207031 C 267.914062 64.871094 268.542969 65.5625 269.136719 66.285156 C 269.730469 67.007812 270.285156 67.757812 270.804688 68.539062 C 271.324219 69.316406 271.804688 70.117188 272.246094 70.941406 C 272.6875 71.765625 273.085938 72.613281 273.445312 73.476562 C 273.804688 74.339844 274.117188 75.21875 274.390625 76.117188 C 274.660156 77.011719 274.886719 77.917969 275.070312 78.835938 C 275.253906 79.753906 275.390625 80.675781 275.480469 81.609375 C 275.574219 82.539062 275.621094 83.472656 275.621094 84.410156 L 275.621094 149.945312 C 275.648438 156.027344 276.539062 161.984375 278.285156 167.8125 C 280.035156 173.636719 282.574219 179.097656 285.902344 184.191406 C 290.175781 180.339844 294.785156 176.945312 299.730469 174.007812 C 300.207031 173.757812 300.703125 173.558594 301.214844 173.40625 C 301.730469 173.25 302.253906 173.148438 302.789062 173.09375 C 303.324219 173.039062 303.855469 173.039062 304.390625 173.085938 C 304.925781 173.136719 305.449219 173.234375 305.964844 173.382812 C 306.480469 173.535156 306.980469 173.730469 307.457031 173.976562 C 307.933594 174.21875 308.382812 174.507812 308.808594 174.839844 C 309.230469 175.171875 309.617188 175.539062 309.96875 175.945312 C 310.320312 176.347656 310.628906 176.785156 310.898438 177.25 C 311.167969 177.714844 311.390625 178.199219 311.566406 178.707031 C 311.742188 179.214844 311.867188 179.734375 311.941406 180.265625 C 312.019531 180.796875 312.042969 181.328125 312.015625 181.867188 C 311.992188 182.402344 311.914062 182.929688 311.785156 183.453125 C 311.660156 183.972656 311.480469 184.476562 311.257812 184.964844 C 311.035156 185.453125 310.765625 185.914062 310.453125 186.351562 C 310.140625 186.789062 309.789062 187.191406 309.398438 187.558594 C 309.007812 187.929688 308.585938 188.257812 308.132812 188.542969 C 303.1875 191.355469 298.683594 194.757812 294.625 198.746094 C 290.566406 202.734375 287.089844 207.175781 284.1875 212.070312 C 281.375 216.894531 279.238281 222.003906 277.78125 227.394531 C 276.320312 232.789062 275.589844 238.277344 275.585938 243.863281 L 275.585938 309.398438 C 275.585938 310.335938 275.539062 311.269531 275.449219 312.199219 C 275.355469 313.132812 275.21875 314.054688 275.039062 314.972656 C 274.855469 315.890625 274.628906 316.796875 274.355469 317.691406 C 274.085938 318.589844 273.769531 319.46875 273.410156 320.332031 C 273.054688 321.195312 272.652344 322.042969 272.214844 322.867188 C 271.773438 323.691406 271.292969 324.492188 270.773438 325.269531 C 270.253906 326.050781 269.695312 326.800781 269.101562 327.523438 C 268.507812 328.246094 267.882812 328.9375 267.21875 329.601562 C 266.558594 330.261719 265.867188 330.890625 265.144531 331.484375 C 264.417969 332.078125 263.667969 332.632812 262.890625 333.152344 C 262.113281 333.671875 261.3125 334.152344 260.488281 334.59375 C 259.660156 335.035156 258.816406 335.433594 257.953125 335.792969 C 257.089844 336.152344 256.207031 336.464844 255.3125 336.738281 C 254.417969 337.007812 253.511719 337.234375 252.59375 337.417969 C 251.675781 337.601562 250.753906 337.738281 249.820312 337.828125 C 248.890625 337.921875 247.957031 337.96875 247.019531 337.96875 L 228.539062 337.96875 L 228.539062 374.800781 L 247.019531 374.800781 C 248.089844 374.800781 249.160156 374.769531 250.226562 374.714844 C 251.296875 374.660156 252.359375 374.582031 253.425781 374.472656 C 254.488281 374.367188 255.550781 374.234375 256.605469 374.074219 C 257.664062 373.917969 258.71875 373.730469 259.765625 373.519531 C 260.8125 373.3125 261.855469 373.074219 262.894531 372.8125 C 263.929688 372.550781 264.960938 372.265625 265.984375 371.953125 C 267.007812 371.640625 268.019531 371.304688 269.027344 370.941406 C 270.035156 370.582031 271.03125 370.195312 272.019531 369.785156 C 273.003906 369.375 273.980469 368.941406 274.949219 368.480469 C 275.914062 368.023438 276.867188 367.542969 277.8125 367.039062 C 278.753906 366.53125 279.683594 366.003906 280.601562 365.453125 C 281.515625 364.902344 282.417969 364.332031 283.308594 363.738281 C 284.199219 363.140625 285.070312 362.527344 285.929688 361.890625 C 286.789062 361.25 287.628906 360.59375 288.457031 359.914062 C 289.285156 359.234375 290.09375 358.539062 290.886719 357.820312 C 291.675781 357.101562 292.453125 356.363281 293.207031 355.605469 C 293.964844 354.851562 294.699219 354.078125 295.417969 353.285156 C 296.136719 352.492188 296.835938 351.683594 297.515625 350.855469 C 298.191406 350.03125 298.851562 349.1875 299.488281 348.328125 C 300.125 347.46875 300.742188 346.597656 301.335938 345.707031 C 301.929688 344.820312 302.503906 343.914062 303.054688 343 C 303.605469 342.082031 304.132812 341.152344 304.636719 340.210938 C 305.140625 339.265625 305.621094 338.3125 306.082031 337.347656 C 306.539062 336.378906 306.972656 335.402344 307.382812 334.414062 C 307.792969 333.429688 308.179688 332.429688 308.542969 331.425781 C 308.902344 330.417969 309.238281 329.402344 309.550781 328.378906 C 309.863281 327.359375 310.152344 326.328125 310.410156 325.289062 C 310.671875 324.253906 310.910156 323.210938 311.121094 322.164062 C 311.332031 321.113281 311.515625 320.0625 311.671875 319.003906 C 311.832031 317.945312 311.964844 316.886719 312.074219 315.820312 C 312.179688 314.757812 312.261719 313.691406 312.316406 312.625 C 312.371094 311.554688 312.398438 310.488281 312.402344 309.417969 L 312.402344 243.878906 C 312.402344 242.945312 312.453125 242.015625 312.546875 241.085938 C 312.640625 240.15625 312.78125 239.234375 312.964844 238.320312 C 313.148438 237.402344 313.378906 236.5 313.652344 235.605469 C 313.921875 234.714844 314.238281 233.835938 314.597656 232.972656 C 314.957031 232.113281 315.359375 231.269531 315.800781 230.445312 C 316.242188 229.625 316.722656 228.824219 317.242188 228.050781 C 317.765625 227.273438 318.320312 226.527344 318.914062 225.804688 C 319.507812 225.085938 320.136719 224.394531 320.796875 223.734375 C 321.457031 223.074219 322.148438 222.449219 322.871094 221.859375 C 323.59375 221.265625 324.34375 220.710938 325.121094 220.195312 C 325.898438 219.675781 326.699219 219.199219 327.523438 218.757812 C 328.347656 218.320312 329.191406 217.921875 330.054688 217.5625 C 330.917969 217.207031 331.796875 216.894531 332.6875 216.621094 C 333.582031 216.351562 334.488281 216.125 335.402344 215.945312 C 336.320312 215.761719 337.242188 215.625 338.171875 215.535156 C 339.101562 215.441406 340.03125 215.398438 340.964844 215.398438 L 371.679688 215.398438 L 371.679688 178.34375 Z M 341 178.34375 "/>
</g>
<g clip-path="url(#clip3)" clip-rule="nonzero">
<path style=" stroke:none;fill-rule:nonzero;fill:rgb(100%,100%,100%);fill-opacity:1;" d="M 119.957031 136.328125 L 119.957031 171.648438 C 119.953125 172.65625 119.851562 173.652344 119.652344 174.640625 C 119.449219 175.625 119.15625 176.582031 118.769531 177.511719 C 118.382812 178.441406 117.90625 179.324219 117.347656 180.160156 C 116.789062 180.996094 116.152344 181.769531 115.441406 182.480469 C 114.726562 183.191406 113.953125 183.824219 113.117188 184.382812 C 112.28125 184.941406 111.398438 185.414062 110.46875 185.800781 C 109.542969 186.183594 108.585938 186.476562 107.597656 186.675781 C 106.613281 186.871094 105.617188 186.972656 104.613281 186.972656 L 88.082031 186.972656 L 88.082031 206.898438 L 104.613281 206.898438 C 105.621094 206.898438 106.621094 206.996094 107.613281 207.191406 C 108.601562 207.390625 109.5625 207.683594 110.496094 208.070312 C 111.429688 208.457031 112.3125 208.929688 113.152344 209.492188 C 113.992188 210.054688 114.769531 210.691406 115.484375 211.40625 C 116.195312 212.121094 116.832031 212.898438 117.394531 213.738281 C 117.957031 214.582031 118.429688 215.46875 118.816406 216.402344 C 119.199219 217.335938 119.492188 218.296875 119.691406 219.289062 C 119.886719 220.28125 119.984375 221.28125 119.984375 222.292969 L 119.984375 257.613281 C 119.988281 258.769531 120.046875 259.917969 120.160156 261.066406 C 120.277344 262.214844 120.449219 263.351562 120.675781 264.484375 C 120.902344 265.617188 121.183594 266.734375 121.519531 267.835938 C 121.855469 268.941406 122.242188 270.023438 122.6875 271.089844 C 123.128906 272.152344 123.621094 273.195312 124.164062 274.210938 C 124.707031 275.230469 125.300781 276.21875 125.941406 277.175781 C 126.582031 278.132812 127.269531 279.058594 128 279.949219 C 128.730469 280.84375 129.503906 281.695312 130.316406 282.511719 C 131.132812 283.328125 131.984375 284.101562 132.875 284.832031 C 133.765625 285.566406 134.6875 286.25 135.644531 286.894531 C 136.601562 287.535156 137.589844 288.125 138.605469 288.671875 C 139.621094 289.214844 140.660156 289.710938 141.722656 290.152344 C 142.789062 290.59375 143.871094 290.984375 144.972656 291.320312 C 146.074219 291.65625 147.1875 291.9375 148.320312 292.164062 C 149.449219 292.390625 150.585938 292.5625 151.730469 292.675781 C 152.878906 292.792969 154.027344 292.851562 155.179688 292.851562 L 165.125 292.851562 L 165.125 272.917969 L 155.179688 272.917969 C 154.167969 272.917969 153.167969 272.820312 152.179688 272.625 C 151.191406 272.425781 150.226562 272.132812 149.296875 271.746094 C 148.363281 271.359375 147.476562 270.886719 146.636719 270.324219 C 145.800781 269.761719 145.023438 269.125 144.308594 268.410156 C 143.59375 267.695312 142.957031 266.917969 142.398438 266.078125 C 141.835938 265.238281 141.363281 264.347656 140.976562 263.414062 C 140.589844 262.480469 140.296875 261.519531 140.101562 260.527344 C 139.90625 259.535156 139.804688 258.535156 139.804688 257.523438 L 139.804688 222.203125 C 139.789062 218.921875 139.3125 215.714844 138.375 212.570312 C 137.4375 209.429688 136.074219 206.484375 134.289062 203.738281 C 131.988281 205.8125 129.503906 207.644531 126.839844 209.234375 C 126.136719 209.644531 125.382812 209.847656 124.570312 209.847656 C 124.070312 209.851562 123.585938 209.769531 123.113281 209.613281 C 122.644531 209.453125 122.210938 209.222656 121.8125 208.917969 C 121.417969 208.613281 121.082031 208.257812 120.804688 207.839844 C 120.527344 207.425781 120.324219 206.980469 120.195312 206.496094 C 120.066406 206.015625 120.015625 205.527344 120.050781 205.027344 C 120.082031 204.53125 120.191406 204.050781 120.382812 203.589844 C 120.574219 203.128906 120.832031 202.710938 121.160156 202.335938 C 121.488281 201.960938 121.867188 201.648438 122.300781 201.398438 C 124.957031 199.882812 127.375 198.046875 129.558594 195.898438 C 131.738281 193.75 133.609375 191.355469 135.167969 188.71875 C 136.6875 186.117188 137.839844 183.359375 138.625 180.449219 C 139.414062 177.539062 139.804688 174.578125 139.804688 171.566406 L 139.804688 136.246094 C 139.804688 135.234375 139.90625 134.234375 140.101562 133.242188 C 140.296875 132.25 140.589844 131.289062 140.976562 130.355469 C 141.363281 129.421875 141.835938 128.535156 142.398438 127.691406 C 142.957031 126.851562 143.59375 126.074219 144.308594 125.359375 C 145.023438 124.644531 145.800781 124.007812 146.636719 123.445312 C 147.476562 122.882812 148.363281 122.410156 149.296875 122.023438 C 150.226562 121.636719 151.191406 121.34375 152.179688 121.144531 C 153.167969 120.949219 154.167969 120.851562 155.179688 120.851562 L 165.125 120.851562 L 165.125 101.089844 L 155.179688 101.089844 C 154.027344 101.089844 152.875 101.148438 151.730469 101.261719 C 150.582031 101.375 149.445312 101.546875 148.316406 101.773438 C 147.183594 102 146.070312 102.28125 144.964844 102.617188 C 143.863281 102.953125 142.78125 103.339844 141.714844 103.78125 C 140.652344 104.226562 139.609375 104.71875 138.59375 105.261719 C 137.578125 105.804688 136.589844 106.398438 135.632812 107.039062 C 134.675781 107.679688 133.75 108.367188 132.859375 109.101562 C 131.96875 109.832031 131.113281 110.605469 130.300781 111.421875 C 129.484375 112.238281 128.710938 113.089844 127.980469 113.980469 C 127.246094 114.875 126.5625 115.800781 125.921875 116.757812 C 125.277344 117.71875 124.6875 118.707031 124.140625 119.722656 C 123.597656 120.738281 123.105469 121.78125 122.660156 122.847656 C 122.21875 123.914062 121.828125 124.996094 121.492188 126.101562 C 121.15625 127.207031 120.875 128.324219 120.648438 129.453125 C 120.421875 130.585938 120.25 131.726562 120.136719 132.875 C 120.019531 134.023438 119.960938 135.175781 119.957031 136.328125 Z M 119.957031 136.328125 "/>
</g>
<g clip-path="url(#clip4)" clip-rule="nonzero">
<path style=" stroke:none;fill-rule:nonzero;fill:rgb(100%,100%,100%);fill-opacity:1;" d="M 269.730469 186.972656 C 268.71875 186.972656 267.71875 186.875 266.730469 186.675781 C 265.738281 186.480469 264.777344 186.1875 263.847656 185.800781 C 262.914062 185.414062 262.027344 184.941406 261.1875 184.378906 C 260.347656 183.816406 259.574219 183.179688 258.859375 182.464844 C 258.144531 181.75 257.507812 180.96875 256.949219 180.128906 C 256.386719 179.289062 255.914062 178.402344 255.527344 177.46875 C 255.140625 176.535156 254.847656 175.570312 254.652344 174.578125 C 254.457031 173.589844 254.355469 172.585938 254.355469 171.578125 L 254.355469 136.253906 C 254.355469 135.101562 254.296875 133.953125 254.179688 132.804688 C 254.066406 131.65625 253.894531 130.515625 253.667969 129.386719 C 253.441406 128.253906 253.160156 127.136719 252.824219 126.035156 C 252.488281 124.933594 252.097656 123.847656 251.65625 122.78125 C 251.214844 121.71875 250.722656 120.675781 250.179688 119.660156 C 249.632812 118.644531 249.042969 117.65625 248.402344 116.695312 C 247.761719 115.738281 247.078125 114.8125 246.34375 113.921875 C 245.613281 113.03125 244.84375 112.175781 244.027344 111.363281 C 243.214844 110.546875 242.359375 109.773438 241.472656 109.039062 C 240.582031 108.308594 239.65625 107.621094 238.699219 106.980469 C 237.742188 106.339844 236.757812 105.746094 235.742188 105.203125 C 234.726562 104.65625 233.6875 104.164062 232.625 103.71875 C 231.5625 103.277344 230.476562 102.886719 229.375 102.550781 C 228.273438 102.214844 227.160156 101.933594 226.03125 101.707031 C 224.902344 101.480469 223.765625 101.308594 222.617188 101.195312 C 221.472656 101.078125 220.324219 101.019531 219.171875 101.015625 L 209.226562 101.015625 L 209.226562 120.949219 L 219.171875 120.949219 C 220.183594 120.949219 221.179688 121.046875 222.171875 121.246094 C 223.160156 121.441406 224.121094 121.734375 225.054688 122.121094 C 225.988281 122.507812 226.875 122.984375 227.710938 123.542969 C 228.550781 124.105469 229.328125 124.746094 230.042969 125.460938 C 230.753906 126.175781 231.394531 126.953125 231.953125 127.792969 C 232.515625 128.632812 232.988281 129.519531 233.375 130.453125 C 233.761719 131.386719 234.050781 132.351562 234.25 133.34375 C 234.445312 134.335938 234.542969 135.335938 234.542969 136.347656 L 234.542969 171.667969 C 234.558594 174.945312 235.039062 178.15625 235.980469 181.296875 C 236.921875 184.4375 238.289062 187.378906 240.078125 190.125 C 242.378906 188.050781 244.859375 186.21875 247.519531 184.636719 C 247.777344 184.5 248.042969 184.394531 248.320312 184.308594 C 248.597656 184.226562 248.878906 184.171875 249.164062 184.144531 C 249.453125 184.113281 249.742188 184.113281 250.027344 184.140625 C 250.316406 184.164062 250.597656 184.21875 250.875 184.300781 C 251.152344 184.378906 251.421875 184.484375 251.679688 184.617188 C 251.933594 184.75 252.175781 184.90625 252.40625 185.082031 C 252.632812 185.261719 252.839844 185.460938 253.03125 185.679688 C 253.21875 185.898438 253.386719 186.132812 253.53125 186.382812 C 253.675781 186.632812 253.792969 186.894531 253.890625 187.167969 C 253.984375 187.441406 254.050781 187.722656 254.09375 188.007812 C 254.132812 188.292969 254.144531 188.582031 254.132812 188.871094 C 254.117188 189.160156 254.078125 189.445312 254.007812 189.726562 C 253.9375 190.007812 253.84375 190.277344 253.722656 190.542969 C 253.601562 190.804688 253.457031 191.054688 253.289062 191.289062 C 253.121094 191.523438 252.933594 191.738281 252.722656 191.9375 C 252.511719 192.136719 252.285156 192.316406 252.042969 192.46875 C 249.378906 193.984375 246.957031 195.820312 244.773438 197.96875 C 242.589844 200.117188 240.71875 202.511719 239.15625 205.148438 C 237.640625 207.75 236.492188 210.503906 235.707031 213.410156 C 234.921875 216.316406 234.527344 219.273438 234.527344 222.285156 L 234.527344 257.605469 C 234.527344 258.617188 234.429688 259.617188 234.230469 260.609375 C 234.035156 261.601562 233.742188 262.5625 233.355469 263.496094 C 232.96875 264.429688 232.496094 265.316406 231.9375 266.160156 C 231.375 267 230.738281 267.777344 230.023438 268.492188 C 229.308594 269.207031 228.535156 269.84375 227.695312 270.40625 C 226.855469 270.96875 225.96875 271.441406 225.035156 271.828125 C 224.105469 272.214844 223.144531 272.507812 222.152344 272.707031 C 221.164062 272.902344 220.164062 273 219.152344 273 L 209.207031 273 L 209.207031 292.851562 L 219.152344 292.851562 C 220.304688 292.851562 221.453125 292.792969 222.601562 292.675781 C 223.746094 292.5625 224.882812 292.390625 226.011719 292.164062 C 227.140625 291.9375 228.257812 291.652344 229.359375 291.316406 C 230.460938 290.980469 231.542969 290.589844 232.605469 290.148438 C 233.667969 289.707031 234.707031 289.214844 235.722656 288.667969 C 236.738281 288.125 237.726562 287.53125 238.683594 286.890625 C 239.640625 286.25 240.5625 285.5625 241.453125 284.828125 C 242.34375 284.097656 243.195312 283.324219 244.007812 282.507812 C 244.824219 281.691406 245.597656 280.839844 246.328125 279.949219 C 247.058594 279.054688 247.742188 278.132812 248.382812 277.171875 C 249.023438 276.214844 249.617188 275.226562 250.160156 274.210938 C 250.703125 273.191406 251.195312 272.152344 251.640625 271.085938 C 252.082031 270.023438 252.46875 268.9375 252.804688 267.835938 C 253.140625 266.730469 253.421875 265.613281 253.648438 264.484375 C 253.875 263.351562 254.046875 262.214844 254.160156 261.066406 C 254.277344 259.917969 254.335938 258.765625 254.339844 257.613281 L 254.339844 222.292969 C 254.339844 221.285156 254.441406 220.285156 254.640625 219.296875 C 254.839844 218.308594 255.132812 217.347656 255.523438 216.414062 C 255.910156 215.484375 256.382812 214.597656 256.945312 213.761719 C 257.507812 212.921875 258.144531 212.148438 258.855469 211.4375 C 259.570312 210.722656 260.347656 210.085938 261.183594 209.527344 C 262.023438 208.96875 262.90625 208.496094 263.839844 208.109375 C 264.769531 207.722656 265.730469 207.433594 266.71875 207.238281 C 267.707031 207.039062 268.703125 206.941406 269.710938 206.941406 L 286.242188 206.941406 L 286.242188 186.972656 Z M 269.730469 186.972656 "/>
</g>
<g clip-path="url(#clip5)" clip-rule="nonzero">
<path style=" stroke:none;fill-rule:nonzero;fill:rgb(100%,34.118652%,34.118652%);fill-opacity:1;" d="M 219.960938 171.195312 L 210.828125 180.328125 L 227.527344 197.027344 L 210.824219 213.730469 L 219.953125 222.859375 L 245.796875 197.027344 Z M 219.960938 171.195312 "/>
</g>
<g clip-path="url(#clip6)" clip-rule="nonzero">
<path style=" stroke:none;fill-rule:nonzero;fill:rgb(100%,34.118652%,34.118652%);fill-opacity:1;" d="M 155.378906 222.859375 L 164.511719 213.730469 L 147.808594 197.027344 L 164.515625 180.328125 L 155.382812 171.195312 L 129.546875 197.027344 Z M 155.378906 222.859375 "/>
</g>
<g clip-path="url(#clip7)" clip-rule="nonzero">
<path style=" stroke:none;fill-rule:nonzero;fill:rgb(100%,34.118652%,34.118652%);fill-opacity:1;" d="M 166.308594 251.808594 L 196.558594 138.90625 L 209.035156 142.25 L 178.785156 255.152344 Z M 166.308594 251.808594 "/>
</g>
</g>
</svg>
